# xmcd
#
# Track frame offsets:
#   150
#   24272
#   49739
#   74884
#   95449
#   121109
#   141980
#   165008
#   198485
#
# Disc length: 2888 seconds
#
# Revision: 0
# Processed by: cddbd v1.4PL0 Copyright (c) Steve Scherf et al.
# Submitted via: Click'N Design 3D 4.8
#
DISCID=760b4609
DTITLE=Your Smile - Angela Winbush
DYEAR=1975
DGENRE=Blues
TTITLE0=Angel
TTITLE1=You're My Everything
TTITLE2=You Don't Have 2 Cry
TTITLE3=Imaginary Playmates
TTITLE4=You Had A Good...............
TTITLE5=My First Love
TTITLE6=I'll Never Be the......
TTITLE7=I'll Be Good
TTITLE8=Your Smile
EXTD=
EXTT0=
EXTT1=
EXTT2=
EXTT3=
EXTT4=
EXTT5=
EXTT6=
EXTT7=
EXTT8=
PLAYORDER=
